HIERARCHY
ROOT Hips
{
	OFFSET	0.00	0.00	0.00
	CHANNELS 6 Xposition Yposition Zposition Zrotation Xrotation Yrotation
	JOINT LeftUpLeg
	{
		OFFSET	 0.126116	-0.014019	-0.065224
		CHANNELS 3 Zrotation Xrotation Yrotation
		JOINT LeftLeg
		{
			OFFSET	 0.000000	 0.000000	 0.569914
			CHANNELS 3 Zrotation Xrotation Yrotation
			JOINT LeftFoot
			{
				OFFSET	 0.000000	 0.000000	 0.544423
				CHANNELS 3 Zrotation Xrotation Yrotation
				JOINT LeftToeBase
				{
					OFFSET	 0.000000	 0.000000	 0.207117
					CHANNELS 3 Zrotation Xrotation Yrotation
					End Site
					{
						OFFSET	 0.000000	 0.000000	 0.207117
					}
				}
			}
		}
	}
	JOINT RightUpLeg
	{
		OFFSET	-0.124023	-0.008373	-0.065224
		CHANNELS 3 Zrotation Xrotation Yrotation
		JOINT RightLeg
		{
			OFFSET	 0.000000	 0.000000	 0.570047
			CHANNELS 3 Zrotation Xrotation Yrotation
			JOINT RightFoot
			{
				OFFSET	 0.000000	 0.000000	 0.544354
				CHANNELS 3 Zrotation Xrotation Yrotation
				JOINT RightToeBase
				{
					OFFSET	 0.000000	 0.000000	 0.207540
					CHANNELS 3 Zrotation Xrotation Yrotation
					End Site
					{
						OFFSET	 0.000000	 0.000000	 0.207540
					}
				}
			}
		}
	}
	JOINT Spine
	{
		OFFSET	 0.000184	-0.007763	 0.117403
		CHANNELS 3 Zrotation Xrotation Yrotation
		JOINT Spine1
		{
			OFFSET	 0.000000	 0.000000	 0.137269
			CHANNELS 3 Zrotation Xrotation Yrotation
			JOINT Spine2
			{
				OFFSET	 0.000000	 0.000000	 0.156879
				CHANNELS 3 Zrotation Xrotation Yrotation
				JOINT LeftShoulder
				{
					OFFSET	 0.080501	-0.002496	 0.160144
					CHANNELS 3 Zrotation Xrotation Yrotation
					JOINT LeftArm
					{
						OFFSET	 0.000000	 0.000000	 0.164363
						CHANNELS 3 Zrotation Xrotation Yrotation
						JOINT LeftForeArm
						{
							OFFSET	 0.000000	 0.000000	 0.364576
							CHANNELS 3 Zrotation Xrotation Yrotation
							JOINT LeftHand
							{
								OFFSET	 0.000000	 0.000000	 0.360812
								CHANNELS 3 Zrotation Xrotation Yrotation
								JOINT LeftHandIndex1
								{
									OFFSET	 0.000000	 0.000000	 0.086006
									CHANNELS 3 Zrotation Xrotation Yrotation
									JOINT LeftHandIndex2
									{
										OFFSET	 0.000000	 0.000000	 0.047236
										CHANNELS 3 Zrotation Xrotation Yrotation
										JOINT LeftHandIndex3
										{
											OFFSET	-0.004284	-0.000551	 0.038166
											CHANNELS 3 Zrotation Xrotation Yrotation
											End Site
											{
												OFFSET	-0.004284	-0.000551	 0.038166
											}
										}
									}
								}
							}
						}
					}
				}
				JOINT Neck
				{
					OFFSET	 0.000000	 0.000000	 0.176489
					CHANNELS 3 Zrotation Xrotation Yrotation
					JOINT Head
					{
						OFFSET	 0.000000	-0.001747	 0.077940
						CHANNELS 3 Zrotation Xrotation Yrotation
						End Site
						{
							OFFSET	 0.000000	-0.001747	 0.077940
						}
					}
				}
				JOINT RightShoulder
				{
					OFFSET	-0.080363	 0.000306	 0.159706
					CHANNELS 3 Zrotation Xrotation Yrotation
					JOINT RightArm
					{
						OFFSET	 0.000000	 0.000000	 0.164196
						CHANNELS 3 Zrotation Xrotation Yrotation
						JOINT RightForeArm
						{
							OFFSET	 0.000000	 0.000000	 0.365611
							CHANNELS 3 Zrotation Xrotation Yrotation
							JOINT RightHand
							{
								OFFSET	 0.000000	 0.000000	 0.360648
								CHANNELS 3 Zrotation Xrotation Yrotation
								JOINT RightHandIndex1
								{
									OFFSET	 0.000000	 0.000000	 0.069977
									CHANNELS 3 Zrotation Xrotation Yrotation
									JOINT RightHandIndex2
									{
										OFFSET	 0.000000	 0.000000	 0.052305
										CHANNELS 3 Zrotation Xrotation Yrotation
										JOINT RightHandIndex3
										{
											OFFSET	 0.009002	-0.000782	 0.042196
											CHANNELS 3 Zrotation Xrotation Yrotation
											End Site
											{
												OFFSET	 0.009002	-0.000782	 0.042196
											}
										}
									}
								}
							}
						}
					}
				}
			}
		}
	}
}
MOTION
Frames:    5
Frame Time: 0.03333334
-0.057491	-2.230594	 1.232085	 4.272264	-1.627738	-3.146806	 0.293832	-7.621318	-171.015400	 0.463762	-28.566810	 0.043456	 25.435900	 71.634710	-28.699500	-2.370994	 31.346490	-0.063854	-3.614178	-28.873550	-176.298100	 10.505580	-53.079760	 8.983111	 9.537970	 67.740680	-4.936630	 2.358066	 33.133080	 0.106310	-3.035969	 8.909188	 1.749915	-0.648224	 2.283295	 0.350222	-1.152182	-2.347035	-0.532061	-93.805310	 58.894790	 175.680300	 24.749350	 45.125150	-25.016100	-0.978594	-2.474139	-21.153590	 0.505847	-0.999658	-6.199557	-4.869370	 19.241940	-2.786463	-3.889302	 21.373200	 2.210654	-4.808246	 5.545645	 0.146961	-0.115199	-5.028225	 0.164128	-3.339274	 2.256888	 2.673958	 89.820720	 61.596390	-179.908000	-21.114460	 53.570350	 11.220960	-1.336258	-2.658131	 13.806970	-4.238820	 13.134820	 0.574664	 6.302049	 25.742420	-0.569022	 1.764087	 45.663490	-6.884604	 0.389763	 24.871830	 3.638035
-0.058562	-2.247107	 1.232999	 5.595739	-0.777839	-3.160690	-0.896376	-7.834316	-171.101400	 1.094290	-28.453430	 0.353331	 24.318300	 71.370010	-28.113060	-2.368712	 31.728240	-0.072491	-6.671657	-30.900200	-176.447100	 11.756250	-50.965530	 9.782011	 23.870760	 77.682520	-21.226840	 2.358985	 32.997680	 0.103172	-3.929252	 8.401496	 1.501842	-0.619071	 1.666391	 0.598034	-1.370700	-2.331646	-0.588898	-94.078190	 59.018380	 175.082900	 25.839850	 43.781240	-25.955290	-1.952906	-2.227911	-22.386730	 1.492633	-1.421965	-7.948341	-4.865171	 19.353650	-2.794623	-3.876323	 21.539360	 2.197462	-4.805321	 5.580183	 0.144939	-0.045070	-5.100507	 0.222553	-3.317618	 2.165269	 2.432545	 89.726920	 61.712760	 179.868000	-20.180890	 54.267140	 9.743371	-1.959890	-2.722636	 13.359900	-4.416732	 13.970620	 0.213108	 6.280173	 23.826210	-0.547762	 2.010573	 43.669220	-7.104274	 0.744611	 23.310140	 3.459117
-0.059327	-2.273154	 1.233434	 6.481266	 0.406750	-3.554918	-1.604623	-7.547554	-170.880400	 1.445366	-27.730130	 0.508469	 23.738460	 71.542910	-27.782330	-2.365427	 32.258380	-0.084575	-8.283717	-33.788750	-176.197100	 12.929050	-47.368380	 10.158070	 65.723210	 81.277800	-65.790700	 2.361482	 32.624580	 0.094533	-4.398386	 7.461860	 1.509397	-0.580268	 1.448796	 0.947724	-1.573114	-2.427956	-0.722149	-94.378330	 58.943220	 174.454300	 26.175210	 41.845280	-26.711770	-2.945478	-2.029630	-24.720370	 1.812702	-2.417758	-7.780666	-4.845544	 19.824300	-2.819670	-3.850142	 21.872240	 2.170870	-4.790222	 5.757981	 0.134511	-0.004404	-5.186409	 0.317296	-3.381873	 2.090536	 2.354243	 89.551930	 61.927460	 179.445700	-18.975810	 55.135440	 7.871760	-3.502211	-2.989676	 12.876020	-5.012529	 14.914370	-0.927012	 6.236063	 21.123660	-0.624262	 2.265048	 41.437650	-7.328292	 1.326216	 20.657190	 3.183508
-0.060253	-2.310750	 1.232342	 6.783735	 0.852465	-4.048561	-1.909137	-5.568415	-170.624300	 1.664203	-26.528990	 0.585852	 22.315910	 70.981710	-26.457000	-2.349324	 34.562180	-0.138392	-6.121859	-35.696880	-174.986900	 12.369680	-41.921410	 8.856252	 112.763600	 76.493140	-114.395800	 2.344143	 35.013180	 0.150834	-4.823607	 6.908336	 1.774294	-0.483571	 2.178387	 1.183340	-1.611232	-2.848149	-0.817982	-94.516200	 58.877750	 174.171500	 24.899730	 39.991570	-27.443530	-3.709728	-1.893025	-27.475930	 1.232884	-3.262369	-7.343596	-4.832420	 20.373060	-2.906976	-3.806559	 22.420070	 2.126595	-4.752761	 6.196965	 0.108538	 0.061477	-5.336764	 0.350124	-3.333656	 1.994772	 2.166993	 89.399150	 62.012530	 179.074700	-16.970710	 55.990480	 4.838127	-5.640652	-3.543456	 12.996420	-5.179228	 15.065220	-3.215794	 6.178124	 17.713030	-0.710067	 2.702099	 37.140260	-7.705142	 2.050843	 17.194520	 2.872960
-0.062997	-2.353175	 1.229328	 7.152472	 0.808547	-3.989926	-2.524655	-3.173174	-171.017900	 2.185190	-25.997460	 0.803453	 18.710740	 68.798360	-23.066800	-2.298473	 39.964870	-0.274686	-5.128786	-36.309480	-174.514700	 11.499340	-35.095800	 7.119895	 83.680560	 77.073000	-85.729680	 2.337965	 35.766060	 0.169119	-5.623696	 6.945294	 1.710982	-0.370666	 2.791230	 1.261620	-1.605229	-3.297350	-0.890079	-94.526010	 59.141830	 174.106900	 22.947680	 38.846920	-28.604020	-3.811606	-1.970380	-29.113910	 0.625005	-5.219383	-8.068112	-4.870432	 20.579150	-3.189050	-3.769954	 22.874180	 2.089426	-4.699328	 6.818621	 0.071220	 0.163935	-5.464657	 0.294185	-3.134671	 2.036450	 1.878147	 89.356500	 61.726830	 178.982500	-15.104800	 56.403020	 1.157273	-7.158538	-4.243888	 14.018980	-5.045444	 14.100180	-4.919978	 6.181016	 14.564230	-0.493643	 2.985489	 33.996450	-7.943085	 2.675259	 14.079050	 2.636809
